<svg width="369" height="41" viewBox="0 0 369 41" fill="none" xmlns="http://www.w3.org/2000/svg">
<path d="M33.0225 35.5728L27.0003 35.2663" stroke="#FEFEFE" stroke-width="3"/>
<path d="M3 32.8102L14.9999 33.6808" stroke="#FEFEFE" stroke-width="5"/>
<g filter="url(#filter0_d_507_4)">
<path d="M149.7 10.45L145.125 28H139.95L137.15 16.45L134.25 28H129.075L124.625 10.45H129.2L131.725 23.225L134.85 10.45H139.55L142.55 23.225L145.1 10.45H149.7ZM153.994 21C153.994 19.5667 154.261 18.3083 154.794 17.225C155.344 16.1417 156.086 15.3083 157.019 14.725C157.952 14.1417 158.994 13.85 160.144 13.85C161.127 13.85 161.986 14.05 162.719 14.45C163.469 14.85 164.044 15.375 164.444 16.025V14.05H168.719V28H164.444V26.025C164.027 26.675 163.444 27.2 162.694 27.6C161.961 28 161.102 28.2 160.119 28.2C158.986 28.2 157.952 27.9083 157.019 27.325C156.086 26.725 155.344 25.8833 154.794 24.8C154.261 23.7 153.994 22.4333 153.994 21ZM164.444 21.025C164.444 19.9583 164.144 19.1167 163.544 18.5C162.961 17.8833 162.244 17.575 161.394 17.575C160.544 17.575 159.819 17.8833 159.219 18.5C158.636 19.1 158.344 19.9333 158.344 21C158.344 22.0667 158.636 22.9167 159.219 23.55C159.819 24.1667 160.544 24.475 161.394 24.475C162.244 24.475 162.961 24.1667 163.544 23.55C164.144 22.9333 164.444 22.0917 164.444 21.025ZM188.587 14.05V28H184.312V26.1C183.878 26.7167 183.287 27.2167 182.537 27.6C181.803 27.9667 180.987 28.15 180.087 28.15C179.02 28.15 178.078 27.9167 177.262 27.45C176.445 26.9667 175.812 26.275 175.362 25.375C174.912 24.475 174.687 23.4167 174.687 22.2V14.05H178.937V21.625C178.937 22.5583 179.178 23.2833 179.662 23.8C180.145 24.3167 180.795 24.575 181.612 24.575C182.445 24.575 183.103 24.3167 183.587 23.8C184.07 23.2833 184.312 22.5583 184.312 21.625V14.05H188.587ZM198.932 9.5V28H194.657V9.5H198.932ZM212.805 24.375V28H210.63C209.08 28 207.872 27.625 207.005 26.875C206.139 26.1083 205.705 24.8667 205.705 23.15V17.6H204.005V14.05H205.705V10.65H209.98V14.05H212.78V17.6H209.98V23.2C209.98 23.6167 210.08 23.9167 210.28 24.1C210.48 24.2833 210.814 24.375 211.28 24.375H212.805ZM242.337 10.45L237.762 28H232.587L229.787 16.45L226.887 28H221.712L217.262 10.45H221.837L224.362 23.225L227.487 10.45H232.187L235.187 23.225L237.737 10.45H242.337ZM249.631 12.6C248.881 12.6 248.264 12.3833 247.781 11.95C247.314 11.5 247.081 10.95 247.081 10.3C247.081 9.63333 247.314 9.08333 247.781 8.65C248.264 8.2 248.881 7.975 249.631 7.975C250.364 7.975 250.964 8.2 251.431 8.65C251.914 9.08333 252.156 9.63333 252.156 10.3C252.156 10.95 251.914 11.5 251.431 11.95C250.964 12.3833 250.364 12.6 249.631 12.6ZM251.756 14.05V28H247.481V14.05H251.756ZM263.529 28.2C262.312 28.2 261.229 27.9917 260.279 27.575C259.329 27.1583 258.579 26.5917 258.029 25.875C257.479 25.1417 257.17 24.325 257.104 23.425H261.329C261.379 23.9083 261.604 24.3 262.004 24.6C262.404 24.9 262.895 25.05 263.479 25.05C264.012 25.05 264.42 24.95 264.704 24.75C265.004 24.5333 265.154 24.2583 265.154 23.925C265.154 23.525 264.945 23.2333 264.529 23.05C264.112 22.85 263.437 22.6333 262.504 22.4C261.504 22.1667 260.67 21.925 260.004 21.675C259.337 21.4083 258.762 21 258.279 20.45C257.795 19.8833 257.554 19.125 257.554 18.175C257.554 17.375 257.77 16.65 258.204 16C258.654 15.3333 259.304 14.8083 260.154 14.425C261.02 14.0417 262.045 13.85 263.229 13.85C264.979 13.85 266.354 14.2833 267.354 15.15C268.37 16.0167 268.954 17.1667 269.104 18.6H265.154C265.087 18.1167 264.87 17.7333 264.504 17.45C264.154 17.1667 263.687 17.025 263.104 17.025C262.604 17.025 262.22 17.125 261.954 17.325C261.687 17.5083 261.554 17.7667 261.554 18.1C261.554 18.5 261.762 18.8 262.179 19C262.612 19.2 263.279 19.4 264.179 19.6C265.212 19.8667 266.054 20.1333 266.704 20.4C267.354 20.65 267.92 21.0667 268.404 21.65C268.904 22.2167 269.162 22.9833 269.179 23.95C269.179 24.7667 268.945 25.5 268.479 26.15C268.029 26.7833 267.37 27.2833 266.504 27.65C265.654 28.0167 264.662 28.2 263.529 28.2ZM287.944 20.8C287.944 21.2 287.919 21.6167 287.869 22.05H278.194C278.261 22.9167 278.536 23.5833 279.019 24.05C279.519 24.5 280.127 24.725 280.844 24.725C281.911 24.725 282.652 24.275 283.069 23.375H287.619C287.386 24.2917 286.961 25.1167 286.344 25.85C285.744 26.5833 284.986 27.1583 284.069 27.575C283.152 27.9917 282.127 28.2 280.994 28.2C279.627 28.2 278.411 27.9083 277.344 27.325C276.277 26.7417 275.444 25.9083 274.844 24.825C274.244 23.7417 273.944 22.475 273.944 21.025C273.944 19.575 274.236 18.3083 274.819 17.225C275.419 16.1417 276.252 15.3083 277.319 14.725C278.386 14.1417 279.611 13.85 280.994 13.85C282.344 13.85 283.544 14.1333 284.594 14.7C285.644 15.2667 286.461 16.075 287.044 17.125C287.644 18.175 287.944 19.4 287.944 20.8ZM283.569 19.675C283.569 18.9417 283.319 18.3583 282.819 17.925C282.319 17.4917 281.694 17.275 280.944 17.275C280.227 17.275 279.619 17.4833 279.119 17.9C278.636 18.3167 278.336 18.9083 278.219 19.675H283.569Z" fill="url(#paint0_linear_507_4)" shape-rendering="crispEdges"/>
</g>
<path d="M25.2498 34.0001C24.6358 33.5887 23.1875 33.2998 21.5021 33.2998C19.8167 33.2998 18.3684 33.5887 17.7544 34.0001H25.2498ZM17.4368 34.4425C17.4368 34.5447 17.9322 35.0322 17.7544 34.8848H25.2498C25.3387 34.7903 25.5632 34.5447 25.5632 34.4425C25.5632 34.3402 25.5702 34.3084 25.4813 34.2139H17.4368C17.3478 34.3084 17.4368 34.3402 17.4368 34.4425ZM31.1869 34.0001C29.9757 33.6873 27.5238 33.4454 24.496 33.3477C25.5293 33.5035 26.2407 33.738 26.6134 34.0001H31.1869ZM18.5039 33.3477C15.4803 33.4454 13.0242 33.6873 11.8173 34.0001H16.3908C16.7592 33.738 17.4706 33.5035 18.5039 33.3477ZM31.7813 34.2139H26.9225C27.0114 34.3107 26.9225 34.3434 26.9225 34.4425C26.9225 34.5415 26.4525 35.0322 26.6176 34.8848H28.9044H31.1911C31.424 34.7903 31.9999 34.5447 31.9999 34.4425C31.9999 34.3402 32.0099 34.3084 31.7813 34.2139ZM16.0817 34.4425C16.0817 34.3434 15.9927 34.3107 16.0817 34.2139H11.3063C11.0777 34.3084 11 34.3402 11 34.4425C11 34.5447 12.2704 35.0322 11.8173 34.8848H16.3908C16.3061 34.788 16.0817 34.5415 16.0817 34.4425ZM17.7544 34.8848C18.3684 35.2962 19.8167 35.5851 21.5021 35.5851C23.1875 35.5851 24.6358 35.2962 25.2498 34.8848H17.7544ZM24.5003 35.5372C27.5238 35.4395 29.98 35.1976 31.1911 34.8848H28.9044H26.6176C26.245 35.1469 25.5335 35.3814 24.5003 35.5372ZM11.8173 34.8848C13.0284 35.1976 15.4803 35.4395 18.5081 35.5372C17.4749 35.3814 16.7634 35.1469 16.3908 34.8848H11.8173Z" fill="url(#paint1_linear_507_4)"/>
<path d="M25.2498 34.0001C24.6358 33.5887 23.1875 33.2998 21.5021 33.2998C19.8167 33.2998 18.3684 33.5887 17.7544 34.0001H25.2498ZM17.4368 34.4425C17.4368 34.5447 17.9322 35.0322 17.7544 34.8848H25.2498C25.3387 34.7903 25.5632 34.5447 25.5632 34.4425C25.5632 34.3402 25.5702 34.3084 25.4813 34.2139H17.4368C17.3478 34.3084 17.4368 34.3402 17.4368 34.4425ZM31.1869 34.0001C29.9757 33.6873 27.5238 33.4454 24.496 33.3477C25.5293 33.5035 26.2407 33.738 26.6134 34.0001H31.1869ZM18.5039 33.3477C15.4803 33.4454 13.0242 33.6873 11.8173 34.0001H16.3908C16.7592 33.738 17.4706 33.5035 18.5039 33.3477ZM31.7813 34.2139H26.9225C27.0114 34.3107 26.9225 34.3434 26.9225 34.4425C26.9225 34.5415 26.4525 35.0322 26.6176 34.8848H28.9044H31.1911C31.424 34.7903 31.9999 34.5447 31.9999 34.4425C31.9999 34.3402 32.0099 34.3084 31.7813 34.2139ZM16.0817 34.4425C16.0817 34.3434 15.9927 34.3107 16.0817 34.2139H11.3063C11.0777 34.3084 11 34.3402 11 34.4425C11 34.5447 12.2704 35.0322 11.8173 34.8848H16.3908C16.3061 34.788 16.0817 34.5415 16.0817 34.4425ZM17.7544 34.8848C18.3684 35.2962 19.8167 35.5851 21.5021 35.5851C23.1875 35.5851 24.6358 35.2962 25.2498 34.8848H17.7544ZM24.5003 35.5372C27.5238 35.4395 29.98 35.1976 31.1911 34.8848H28.9044H26.6176C26.245 35.1469 25.5335 35.3814 24.5003 35.5372ZM11.8173 34.8848C13.0284 35.1976 15.4803 35.4395 18.5081 35.5372C17.4749 35.3814 16.7634 35.1469 16.3908 34.8848H11.8173Z" fill="url(#paint2_linear_507_4)"/>
<line x1="2" y1="30.4736" x2="42" y2="30.4736" stroke="#FEFEFE" stroke-width="5"/>
<g style="mix-blend-mode:hard-light">
<path d="M42.0554 36.0642L29.0305 35.2763" stroke="#FEFEFE" stroke-width="5"/>
</g>
<path d="M22.0586 37L21.8491 35.5856" stroke="#FEFEFE" stroke-width="5"/>
<line y1="-2.5" x2="39.9974" y2="-2.5" transform="matrix(-0.999999 0.0012653 -0.106239 -0.994341 42.9971 35.8682)" stroke="#FEFEFE" stroke-width="5"/>
<path d="M22 31.9941L22 33.3" stroke="#FEFEFE" stroke-width="5"/>
<defs>
<filter id="filter0_d_507_4" x="120.625" y="7.9751" width="171.319" height="28.2251" filterUnits="userSpaceOnUse" color-interpolation-filters="sRGB">
<feFlood flood-opacity="0" result="BackgroundImageFix"/>
<feColorMatrix in="SourceAlpha" type="matrix" values="0 0 0 0 0 0 0 0 0 0 0 0 0 0 0 0 0 0 127 0" result="hardAlpha"/>
<feOffset dy="4"/>
<feGaussianBlur stdDeviation="2"/>
<feComposite in2="hardAlpha" operator="out"/>
<feColorMatrix type="matrix" values="0 0 0 0 0 0 0 0 0 0 0 0 0 0 0 0 0 0 0.25 0"/>
<feBlend mode="normal" in2="BackgroundImageFix" result="effect1_dropShadow_507_4"/>
<feBlend mode="normal" in="SourceGraphic" in2="effect1_dropShadow_507_4" result="shape"/>
</filter>
<linearGradient id="paint0_linear_507_4" x1="124" y1="2.06765" x2="278.885" y2="2.06749" gradientUnits="userSpaceOnUse">
<stop stop-color="white"/>
<stop stop-color="white" stop-opacity="0.427171"/>
<stop offset="0.0001" stop-color="white" stop-opacity="0.171292"/>
<stop offset="0.505" stop-color="#A6FFFA" stop-opacity="0.54"/>
</linearGradient>
<linearGradient id="paint1_linear_507_4" x1="11" y1="33.6263" x2="11.3561" y2="37.1955" gradientUnits="userSpaceOnUse">
<stop offset="0.0989583" stop-color="#541EE6"/>
<stop offset="0.354167" stop-color="#62BDE5" stop-opacity="0.51"/>
<stop offset="0.572146" stop-color="#62BDE6" stop-opacity="0.72"/>
<stop offset="0.973958" stop-color="#A146E8"/>
</linearGradient>
<linearGradient id="paint2_linear_507_4" x1="32" y1="33.2998" x2="32" y2="35.313" gradientUnits="userSpaceOnUse">
<stop offset="0.130208" stop-color="#541EE6"/>
<stop offset="0.596269" stop-color="#62BDE6" stop-opacity="0.72"/>
<stop offset="0.973958" stop-color="#A146E8"/>
</linearGradient>
</defs>
</svg>
